<svg xmlns="http://www.w3.org/2000/svg" width="20.057" height="20.559" viewBox="0 0 20.057 20.559">
  <path id="Path_1197" data-name="Path 1197" d="M24.192,0H5.863A.861.861,0,0,0,5.1.468a.873.873,0,0,0,.068.909l6.715,9.459.007.01a1.918,1.918,0,0,1,.377,1.138V19.7a.857.857,0,0,0,.857.863.884.884,0,0,0,.338-.068l3.773-1.439a.818.818,0,0,0,.562-.806V11.984a1.918,1.918,0,0,1,.376-1.138l.007-.01,6.715-9.46A.872.872,0,0,0,24.96.468.86.86,0,0,0,24.192,0Z" transform="translate(-4.999 0)" fill="#f9f9f9"/>
</svg>
