<svg xmlns="http://www.w3.org/2000/svg" width="23.44" height="22.923" viewBox="0 0 23.44 22.923">
  <path id="ic_notifications_active_24px" d="M8.554,4.357,6.873,2.676A12.255,12.255,0,0,0,2.03,11.9H4.381A9.928,9.928,0,0,1,8.554,4.357ZM23.119,11.9H25.47a12.329,12.329,0,0,0-4.843-9.228L18.957,4.357A9.986,9.986,0,0,1,23.119,11.9Zm-2.316.588c0-3.609-1.928-6.63-5.29-7.429v-.8a1.763,1.763,0,1,0-3.527,0v.8c-3.374.8-5.29,3.809-5.29,7.429v5.878L4.346,20.72V21.9H23.154V20.72L20.8,18.369ZM13.75,25.423a2.059,2.059,0,0,0,.47-.047,2.385,2.385,0,0,0,1.693-1.387,2.36,2.36,0,0,0,.176-.917h-4.7a2.368,2.368,0,0,0,2.363,2.351Z" transform="translate(-2.03 -2.5)" fill="#fff"/>
</svg>
